<?xml version="1.0" encoding="UTF-8" standalone="no"?>
<!-- Created with Inkscape (http://www.inkscape.org/) -->

<svg
   xmlns:dc="http://purl.org/dc/elements/1.1/"
   xmlns:cc="http://creativecommons.org/ns#"
   xmlns:rdf="http://www.w3.org/1999/02/22-rdf-syntax-ns#"
   xmlns:svg="http://www.w3.org/2000/svg"
   xmlns="http://www.w3.org/2000/svg"
   version="1.1"
   width="311.49939"
   height="42.631874"
   id="svg2"
   xml:space="preserve"><metadata
     id="metadata8"><rdf:RDF><cc:Work
         rdf:about=""><dc:format>image/svg+xml</dc:format><dc:type
           rdf:resource="http://purl.org/dc/dcmitype/StillImage" /><dc:title></dc:title></cc:Work></rdf:RDF></metadata><defs
     id="defs6"><clipPath
       id="clipPath20"><path
         d="m 0,0 2459.99,0 0,550 L 0,550 0,0 z"
         id="path22" /></clipPath></defs><g
     transform="matrix(0.125,0,0,-0.125,1.9993896,70.7515)"
     id="g12"><path
       d="m 786.684,388.242 c 0,71.914 -57.137,130.211 -127.622,130.211 l -87.621,0 c -70.48,0 -127.617,-58.297 -127.617,-130.211 l 0,0 c 0,-71.914 57.137,-130.211 127.617,-130.211 l 87.621,0 c 70.485,0 127.622,58.297 127.622,130.211 l 0,0"
       id="path14"
       style="fill:#005071;fill-opacity:1;fill-rule:nonzero;stroke:none" /><g
       id="g16"><g
         clip-path="url(#clipPath20)"
         id="g18"><path
           d="m 158.848,250.785 c 0,-3.555 2.82,-6.465 6.218,-6.465 l 77.043,0 c 3.45,0 6.231,2.91 6.231,6.465 l 0,92.317 c 0,3.543 1.828,8.656 4.058,11.355 l 153.641,187.32 c 2.184,2.7 1.215,4.914 -2.223,4.914 l -95.632,0 c -3.434,0 -7.985,-2.238 -10.192,-4.988 L 207.566,428.02 c -2.179,-2.727 -5.761,-2.727 -7.933,0 l -90.496,113.683 c -2.184,2.75 -6.758,4.988 -10.18,4.988 l -95.58591,0 c -3.4218712,0 -4.39062,-2.214 -2.18359,-4.914 L 154.801,354.457 c 2.219,-2.699 4.047,-7.812 4.047,-11.355 l 0,-92.317"
           id="path24"
           style="fill:#005071;fill-opacity:1;fill-rule:nonzero;stroke:none" /></g></g><path
       d="m 1338.26,250.785 c 0,-3.555 2.78,-6.465 6.23,-6.465 l 278.25,0 c 3.42,0 6.22,2.91 6.22,6.465 l 0,64.727 c 0,3.547 -2.8,6.468 -6.22,6.468 l -188.77,0 c -3.4,0 -6.2,2.895 -6.2,6.454 l 0,211.812 c 0,3.524 -2.81,6.445 -6.25,6.445 l -77.03,0 c -3.45,0 -6.23,-2.921 -6.23,-6.445 l 0,-289.461"
       id="path26"
       style="fill:#005071;fill-opacity:1;fill-rule:nonzero;stroke:none" /><path
       d="m 1689.86,250.586 c 0,-3.438 2.72,-6.262 6.05,-6.262 l 312.5,0 c 3.31,0 6.06,2.824 6.06,6.262 l 0,60.105 c 0,3.457 -2.75,6.27 -6.06,6.27 l -223.01,0 c -3.27,0 -6.06,2.836 -6.06,6.293 l 0,35.891 c 0,3.449 2.79,6.269 6.06,6.269 l 205.66,0 c 3.33,0 6.08,2.84 6.08,6.285 l 0,50.059 c 0,3.457 -2.75,6.293 -6.08,6.293 l -205.66,0 c -3.27,0 -6.06,2.836 -6.06,6.285 l 0,35.898 c 0,3.461 2.79,6.286 6.06,6.286 l 217.76,0 c 3.33,0 6.06,2.824 6.06,6.281 l 0,57.597 c 0,3.461 -2.73,6.297 -6.06,6.297 l -307.25,0 c -3.33,0 -6.05,-2.836 -6.05,-6.297 l 0,-289.812"
       id="path28"
       style="fill:#005071;fill-opacity:1;fill-rule:nonzero;stroke:none" /><path
       d="m 2084.6,250.586 c 0,-3.438 2.71,-6.262 6.05,-6.262 l 312.4,0 c 3.32,0 6.07,2.824 6.07,6.262 l 0,60.105 c 0,3.457 -2.75,6.27 -6.07,6.27 l -222.91,0 c -3.33,0 -6.03,2.836 -6.03,6.293 l 0,35.891 c 0,3.449 2.7,6.269 6.03,6.269 l 205.62,0 c 3.31,0 6.05,2.84 6.05,6.285 l 0,50.059 c 0,3.457 -2.74,6.293 -6.05,6.293 l -205.62,0 c -3.33,0 -6.03,2.836 -6.03,6.285 l 0,35.898 c 0,3.461 2.7,6.286 6.03,6.286 l 217.71,0 c 3.35,0 6.06,2.824 6.06,6.281 l 0,57.597 c 0,3.461 -2.71,6.297 -6.06,6.297 l -307.2,0 c -3.34,0 -6.05,-2.836 -6.05,-6.297 l 0,-289.812"
       id="path30"
       style="fill:#005071;fill-opacity:1;fill-rule:nonzero;stroke:none" /><path
       d="m 971.312,321.82 c -3.421,0 -6.214,2.91 -6.214,6.469 l 0,137.434 c 0,3.531 2.793,6.441 6.214,6.441 l 123.498,0 c 52.16,0 81.39,-25.707 81.39,-73.992 0,-58.832 -37.97,-76.352 -108.25,-76.352 l -96.638,0 z m -97.218,-71.031 c 0,-3.57 2.773,-6.465 6.195,-6.465 l 207.171,0 c 54.28,0 95.59,5.266 125.06,23.442 42.43,25.82 67.22,72.722 67.22,129.586 0,93.808 -60.15,149.558 -173.97,149.558 l -225.481,0 c -3.422,0 -6.195,-2.894 -6.195,-6.453 l 0,-289.668"
       id="path32"
       style="fill:#005071;fill-opacity:1;fill-rule:nonzero;stroke:none" /><path
       d="m 737.035,377.816 c 0,-50.644 -10.25,-69.957 -59.191,-69.957 l -132.203,0 c -48.965,0 -59.192,19.313 -59.192,69.957 l 0,35.789 c 0,43.395 10.227,69.934 64.785,69.934 l 121.055,0 c 54.496,0 64.746,-26.539 64.746,-69.934 l 0,-35.789 z m -53.797,172.196 -143.496,0 c -80.625,0 -128.633,-20.856 -128.633,-109.414 l 0,-90.227 c 0,-88.535 48.008,-109.414 128.633,-109.414 l 143.496,0 c 80.676,0 128.598,20.879 128.598,109.414 l 0,90.227 c 0,88.558 -47.922,109.414 -128.598,109.414"
       id="path34"
       style="fill:#e8be15;fill-opacity:1;fill-rule:evenodd;stroke:none" /><path
       d="m 2437.75,522.02 3.83,0 c 3.92,0 5.2,1.175 5.2,3.57 0,2.066 -1.01,3.238 -4.68,3.238 l -4.35,0 0,-6.808 z m 0,-12.172 -3.23,0 0,21.707 8.04,0 c 4.99,0 7.46,-1.895 7.46,-6.184 0,-3.902 -2.35,-5.574 -5.52,-5.965 l 5.98,-9.558 -3.52,0 -5.6,9.433 -3.61,0 0,-9.433 z m 3.88,26.632 c -8.42,0 -14.94,-6.734 -14.94,-15.718 0,-9.219 6.52,-15.844 14.94,-15.844 8.34,0 14.85,6.625 14.85,15.844 0,8.984 -6.51,15.718 -14.85,15.718 m 0,3.071 c 9.9,0 18.37,-7.996 18.37,-18.789 0,-10.914 -8.47,-18.887 -18.37,-18.887 -9.98,0 -18.5,7.973 -18.5,18.887 0,10.793 8.52,18.789 18.5,18.789"
       id="path36"
       style="fill:#005071;fill-opacity:1;fill-rule:nonzero;stroke:none" /></g></svg>